<svg xmlns="http://www.w3.org/2000/svg" xmlns:xlink="http://www.w3.org/1999/xlink" width="74" zoomAndPan="magnify" viewBox="0 0 55.5 47.25" height="63" preserveAspectRatio="xMidYMid meet" version="1.0"><defs><clipPath id="5308ba4e88"><path d="M 8 22 L 54.820312 22 L 54.820312 25 L 8 25 Z M 8 22 " clip-rule="nonzero"/></clipPath><clipPath id="8939a416dd"><path d="M 31 4 L 54.820312 4 L 54.820312 7 L 31 7 Z M 31 4 " clip-rule="nonzero"/></clipPath><clipPath id="26e0314501"><path d="M 0.1875 40 L 47 40 L 47 43 L 0.1875 43 Z M 0.1875 40 " clip-rule="nonzero"/></clipPath><clipPath id="a65d597cd9"><path d="M 0.1875 17 L 12 17 L 12 29 L 0.1875 29 Z M 0.1875 17 " clip-rule="nonzero"/></clipPath><clipPath id="25861fcc1a"><path d="M 44 35 L 54.820312 35 L 54.820312 46.511719 L 44 46.511719 Z M 44 35 " clip-rule="nonzero"/></clipPath><clipPath id="ebeece74a0"><path d="M 0.1875 4 L 25 4 L 25 7 L 0.1875 7 Z M 0.1875 4 " clip-rule="nonzero"/></clipPath></defs><g clip-path="url(#5308ba4e88)"><path fill="#bd202e" d="M 54.101562 22.148438 C 54.425781 22.148438 54.730469 22.277344 54.957031 22.5 C 55.183594 22.730469 55.3125 23.035156 55.3125 23.355469 C 55.3125 23.675781 55.183594 23.980469 54.957031 24.207031 C 54.730469 24.433594 54.425781 24.558594 54.101562 24.558594 L 10.199219 24.558594 C 9.878906 24.558594 9.574219 24.433594 9.347656 24.207031 C 9.121094 23.980469 8.992188 23.675781 8.992188 23.355469 C 8.992188 23.035156 9.121094 22.730469 9.347656 22.5 C 9.574219 22.277344 9.878906 22.148438 10.199219 22.148438 Z M 54.101562 22.148438 " fill-opacity="1" fill-rule="nonzero"/></g><g clip-path="url(#8939a416dd)"><path fill="#bd202e" d="M 54.101562 4.070312 C 54.425781 4.070312 54.730469 4.195312 54.957031 4.421875 C 55.183594 4.648438 55.3125 4.957031 55.3125 5.273438 C 55.3125 5.59375 55.183594 5.902344 54.957031 6.128906 C 54.730469 6.355469 54.425781 6.480469 54.101562 6.480469 L 32.261719 6.480469 C 31.941406 6.480469 31.632812 6.355469 31.40625 6.128906 C 31.179688 5.902344 31.054688 5.59375 31.054688 5.273438 C 31.054688 4.957031 31.179688 4.648438 31.40625 4.421875 C 31.632812 4.195312 31.941406 4.070312 32.261719 4.070312 Z M 54.101562 4.070312 " fill-opacity="1" fill-rule="nonzero"/></g><g clip-path="url(#26e0314501)"><path fill="#bd202e" d="M 44.890625 40.226562 C 45.210938 40.226562 45.515625 40.355469 45.746094 40.582031 C 45.972656 40.808594 46.097656 41.113281 46.097656 41.433594 C 46.097656 41.753906 45.972656 42.0625 45.746094 42.285156 C 45.515625 42.511719 45.210938 42.640625 44.890625 42.640625 L 1.414062 42.640625 C 1.09375 42.640625 0.789062 42.511719 0.5625 42.285156 C 0.335938 42.0625 0.207031 41.753906 0.207031 41.433594 C 0.207031 41.113281 0.335938 40.808594 0.5625 40.582031 C 0.789062 40.355469 1.09375 40.226562 1.414062 40.226562 Z M 44.890625 40.226562 " fill-opacity="1" fill-rule="nonzero"/></g><path fill="#bd202e" d="M 22.265625 5.480469 C 22.265625 4.027344 22.84375 2.632812 23.875 1.601562 C 24.902344 0.574219 26.300781 -0.00390625 27.761719 -0.00390625 C 29.21875 -0.00390625 30.613281 0.574219 31.644531 1.601562 C 32.675781 2.632812 33.253906 4.027344 33.253906 5.480469 C 33.253906 6.9375 32.675781 8.332031 31.644531 9.359375 C 30.613281 10.390625 29.21875 10.96875 27.761719 10.96875 C 26.300781 10.96875 24.902344 10.390625 23.875 9.359375 C 22.84375 8.332031 22.265625 6.9375 22.265625 5.480469 Z M 24.679688 5.480469 C 24.679688 4.667969 25.003906 3.882812 25.582031 3.308594 C 26.160156 2.730469 26.941406 2.40625 27.761719 2.40625 C 28.574219 2.40625 29.359375 2.730469 29.9375 3.308594 C 30.515625 3.882812 30.839844 4.667969 30.839844 5.480469 C 30.839844 6.296875 30.515625 7.078125 29.9375 7.65625 C 29.359375 8.230469 28.574219 8.554688 27.761719 8.554688 C 26.941406 8.554688 26.160156 8.230469 25.582031 7.65625 C 25.003906 7.078125 24.679688 6.296875 24.679688 5.480469 Z M 24.679688 5.480469 " fill-opacity="1" fill-rule="evenodd"/><g clip-path="url(#a65d597cd9)"><path fill="#bd202e" d="M 0.1875 23.359375 C 0.1875 21.90625 0.765625 20.507812 1.796875 19.480469 C 2.828125 18.453125 4.226562 17.875 5.683594 17.875 C 7.140625 17.875 8.539062 18.453125 9.570312 19.480469 C 10.597656 20.507812 11.179688 21.90625 11.179688 23.359375 C 11.179688 24.8125 10.597656 26.210938 9.570312 27.238281 C 8.539062 28.265625 7.140625 28.84375 5.683594 28.84375 C 4.226562 28.84375 2.828125 28.265625 1.796875 27.238281 C 0.765625 26.210938 0.1875 24.8125 0.1875 23.359375 Z M 2.605469 23.359375 C 2.605469 22.542969 2.929688 21.761719 3.507812 21.183594 C 4.082031 20.609375 4.867188 20.285156 5.683594 20.285156 C 6.5 20.285156 7.285156 20.609375 7.859375 21.183594 C 8.4375 21.761719 8.761719 22.542969 8.761719 23.359375 C 8.761719 24.175781 8.4375 24.957031 7.859375 25.53125 C 7.285156 26.109375 6.5 26.433594 5.683594 26.433594 C 4.867188 26.433594 4.082031 26.109375 3.507812 25.53125 C 2.929688 24.957031 2.605469 24.175781 2.605469 23.359375 Z M 2.605469 23.359375 " fill-opacity="1" fill-rule="evenodd"/></g><g clip-path="url(#25861fcc1a)"><path fill="#bd202e" d="M 44.320312 41.4375 C 44.320312 39.984375 44.902344 38.589844 45.929688 37.558594 C 46.960938 36.53125 48.359375 35.953125 49.816406 35.953125 C 51.273438 35.953125 52.671875 36.53125 53.703125 37.558594 C 54.734375 38.589844 55.3125 39.984375 55.3125 41.4375 C 55.3125 42.894531 54.734375 44.289062 53.703125 45.316406 C 52.671875 46.347656 51.273438 46.925781 49.816406 46.925781 C 48.359375 46.925781 46.960938 46.347656 45.929688 45.316406 C 44.902344 44.289062 44.320312 42.894531 44.320312 41.4375 Z M 46.738281 41.4375 C 46.738281 40.625 47.0625 39.839844 47.640625 39.265625 C 48.214844 38.6875 49 38.363281 49.816406 38.363281 C 50.632812 38.363281 51.417969 38.6875 51.992188 39.265625 C 52.570312 39.839844 52.894531 40.625 52.894531 41.4375 C 52.894531 42.253906 52.570312 43.035156 51.992188 43.613281 C 51.417969 44.1875 50.632812 44.511719 49.816406 44.511719 C 49 44.511719 48.214844 44.1875 47.640625 43.613281 C 47.0625 43.035156 46.738281 42.253906 46.738281 41.4375 Z M 46.738281 41.4375 " fill-opacity="1" fill-rule="evenodd"/></g><g clip-path="url(#ebeece74a0)"><path fill="#bd202e" d="M 23.148438 4.070312 C 23.46875 4.070312 23.773438 4.195312 24.003906 4.421875 C 24.226562 4.648438 24.355469 4.957031 24.355469 5.273438 C 24.355469 5.59375 24.226562 5.902344 24.003906 6.128906 C 23.773438 6.355469 23.46875 6.480469 23.148438 6.480469 L 1.414062 6.480469 C 1.09375 6.480469 0.789062 6.355469 0.5625 6.128906 C 0.335938 5.902344 0.207031 5.59375 0.207031 5.273438 C 0.207031 4.957031 0.335938 4.648438 0.5625 4.421875 C 0.789062 4.195312 1.09375 4.070312 1.414062 4.070312 Z M 23.148438 4.070312 " fill-opacity="1" fill-rule="nonzero"/></g></svg>