<svg xmlns="http://www.w3.org/2000/svg" xmlns:xlink="http://www.w3.org/1999/xlink" width="74" zoomAndPan="magnify" viewBox="0 0 55.5 47.25" height="63" preserveAspectRatio="xMidYMid meet" version="1.0"><defs><clipPath id="04699e5f39"><path d="M 3.898438 0 L 51.574219 0 L 51.574219 46.511719 L 3.898438 46.511719 Z M 3.898438 0 " clip-rule="nonzero"/></clipPath></defs><g clip-path="url(#04699e5f39)"><path fill="#bd202e" d="M 49.253906 17.457031 C 50.648438 16.390625 50.464844 14.570312 49.34375 13.386719 C 48.058594 13.371094 47.335938 13.148438 46.351562 12.199219 C 44.726562 10.632812 42.933594 10.835938 40.863281 10.695312 C 40.742188 10.6875 40.652344 10.644531 40.582031 10.582031 C 40.550781 10.570312 40.511719 10.554688 40.480469 10.53125 C 40.296875 10.417969 40.257812 10.5 40.097656 10.671875 C 39.902344 10.875 39.710938 11.085938 39.46875 11.246094 C 39.371094 11.304688 39.273438 11.324219 39.1875 11.316406 C 39.089844 11.390625 38.964844 11.425781 38.8125 11.390625 C 37.894531 11.183594 37.425781 10.316406 37.796875 9.425781 C 37.867188 9.265625 38.03125 8.988281 37.804688 8.875 C 37.632812 8.789062 37.4375 8.746094 37.246094 8.71875 C 36.910156 8.664062 36.570312 8.644531 36.242188 8.554688 C 36.179688 8.570312 36.105469 8.570312 36.023438 8.550781 C 35.105469 8.304688 34.367188 7.636719 33.453125 7.414062 C 32.785156 7.253906 32.332031 7.050781 31.941406 6.460938 C 31.910156 6.410156 31.890625 6.359375 31.878906 6.308594 C 31.820312 6.21875 31.800781 6.097656 31.847656 5.953125 C 32.105469 5.175781 31.53125 4.503906 31.109375 3.894531 C 30.792969 3.441406 30.503906 2.980469 30.316406 2.46875 C 29.945312 2.757812 29.359375 3.972656 29.113281 4.195312 C 28.289062 4.925781 26.996094 4.226562 26.03125 4.367188 C 25.554688 5.980469 23.449219 4.777344 22.371094 5.457031 C 22.324219 5.484375 22.277344 5.503906 22.234375 5.511719 C 22.140625 5.582031 22.015625 5.605469 21.867188 5.554688 C 21.054688 5.261719 20.585938 4.554688 20.585938 3.6875 C 20.582031 3.183594 20.757812 2.769531 20.828125 2.277344 C 20.894531 1.820312 20.628906 1.457031 20.351562 1.117188 C 19.761719 1.53125 19.363281 2.191406 18.671875 2.46875 C 17.785156 2.832031 16.933594 2.761719 16.09375 2.40625 C 16.054688 2.429688 16.015625 2.449219 15.96875 2.457031 C 15.914062 2.46875 15.855469 2.484375 15.800781 2.5 C 15.789062 2.503906 15.789062 2.507812 15.78125 2.507812 C 15.761719 2.519531 15.738281 2.53125 15.71875 2.539062 C 15.703125 2.550781 15.6875 2.558594 15.675781 2.566406 C 15.675781 2.570312 15.667969 2.582031 15.648438 2.597656 C 15.625 2.617188 15.605469 2.648438 15.582031 2.671875 C 15.625 2.875 15.894531 3.140625 15.953125 3.320312 C 16.003906 3.476562 16.011719 3.628906 16 3.789062 C 15.992188 3.925781 15.921875 4.089844 15.988281 4.222656 C 15.996094 4.242188 16.003906 4.257812 16.007812 4.273438 C 16.105469 4.375 16.160156 4.511719 16.136719 4.675781 C 15.820312 6.886719 13.011719 6.257812 11.925781 5.027344 C 11.921875 5.027344 11.921875 5.027344 11.921875 5.023438 C 11.195312 5.089844 10.5625 5.386719 9.980469 5.84375 C 9.9375 5.878906 9.886719 5.902344 9.839844 5.917969 C 9.820312 5.945312 9.800781 5.96875 9.777344 5.996094 C 9.566406 6.214844 9.664062 6.257812 9.785156 6.488281 C 9.84375 6.59375 9.878906 6.726562 9.945312 6.824219 C 10.035156 6.953125 10.09375 7.078125 10.09375 7.242188 C 10.097656 7.707031 9.707031 8.039062 9.441406 8.390625 C 9.894531 9.105469 10.285156 9.582031 10.132812 10.515625 C 10.035156 11.128906 9.886719 11.921875 9.375 12.335938 C 9.308594 12.386719 9.242188 12.410156 9.171875 12.425781 C 9.132812 12.457031 9.089844 12.46875 9.042969 12.488281 C 8.96875 12.519531 8.890625 12.515625 8.816406 12.546875 C 8.753906 12.574219 8.683594 12.523438 8.621094 12.523438 C 8.617188 12.523438 8.617188 12.523438 8.617188 12.523438 C 8.398438 12.523438 8.242188 12.417969 8.1875 12.226562 C 8.152344 12.226562 8.121094 12.261719 8.089844 12.269531 C 8.085938 12.269531 8.085938 12.269531 8.082031 12.269531 C 8.074219 12.269531 8.070312 12.273438 8.058594 12.273438 C 8.035156 12.277344 8.007812 12.285156 7.984375 12.292969 C 7.976562 12.296875 7.96875 12.296875 7.964844 12.300781 C 7.960938 12.300781 7.960938 12.300781 7.957031 12.304688 C 7.957031 12.304688 7.957031 12.304688 7.953125 12.304688 C 7.921875 12.429688 7.851562 12.515625 7.761719 12.566406 C 7.746094 12.582031 7.726562 12.601562 7.707031 12.617188 C 7.445312 12.8125 7.140625 12.894531 6.820312 12.941406 C 6.5625 12.980469 6.28125 13 6.089844 13.191406 C 6.050781 13.222656 6.011719 13.25 5.976562 13.269531 C 5.816406 13.464844 5.800781 13.671875 5.773438 13.921875 C 5.742188 14.1875 5.695312 14.425781 5.582031 14.664062 C 5.582031 14.800781 5.515625 14.933594 5.347656 15.011719 C 5 15.175781 4.832031 15.621094 4.847656 15.992188 C 4.851562 16.054688 4.84375 16.109375 4.824219 16.160156 C 4.878906 16.320312 5.066406 16.480469 5.164062 16.589844 C 5.332031 16.769531 5.496094 16.957031 5.621094 17.167969 C 5.664062 17.238281 5.679688 17.308594 5.679688 17.378906 C 5.699219 17.449219 5.699219 17.523438 5.691406 17.601562 C 5.691406 17.601562 5.679688 17.605469 5.679688 17.609375 L 5.648438 17.609375 C 5.648438 17.609375 5.683594 17.613281 5.683594 17.617188 C 5.683594 17.613281 5.714844 17.609375 5.714844 17.605469 C 5.714844 17.597656 5.714844 17.59375 5.710938 17.582031 C 5.714844 17.59375 5.714844 17.597656 5.714844 17.605469 C 5.714844 17.597656 5.71875 17.597656 5.71875 17.597656 C 5.726562 17.597656 5.730469 17.617188 5.730469 17.625 C 5.738281 17.636719 5.742188 17.640625 5.746094 17.644531 C 5.746094 17.644531 5.746094 17.644531 5.75 17.648438 C 5.773438 17.664062 5.800781 17.675781 5.828125 17.691406 C 5.847656 17.695312 5.878906 17.707031 5.882812 17.710938 C 5.925781 17.71875 5.960938 17.734375 6 17.738281 C 5.996094 17.738281 5.992188 17.738281 5.992188 17.738281 C 5.996094 17.738281 6.003906 17.742188 6.007812 17.742188 C 6.03125 17.746094 6.046875 17.746094 6.066406 17.753906 C 6.226562 17.734375 6.394531 17.792969 6.503906 17.96875 C 6.882812 18.601562 7.441406 18.515625 8.078125 18.328125 C 8.085938 18.324219 8.097656 18.324219 8.105469 18.324219 C 8.335938 18.238281 8.628906 18.308594 8.714844 18.609375 C 8.808594 18.921875 8.765625 19.242188 8.824219 19.558594 C 9.402344 19.929688 10.523438 19.679688 11.125 19.585938 C 11.128906 19.585938 11.132812 19.585938 11.140625 19.585938 C 11.347656 19.457031 11.457031 19.230469 11.660156 19.097656 C 11.871094 18.964844 12.089844 18.855469 12.324219 18.777344 C 12.886719 18.589844 13.425781 18.265625 14.015625 18.175781 C 14.410156 18.117188 14.652344 18.515625 14.574219 18.796875 C 14.585938 18.835938 14.589844 18.875 14.59375 18.921875 C 14.601562 19.351562 14.742188 19.773438 14.746094 20.207031 C 15.199219 20.609375 15.628906 21.007812 16.25 21.148438 C 16.613281 21.226562 16.929688 21.316406 17.25 21.496094 C 17.964844 21.898438 18.652344 22.917969 19.609375 22.628906 C 19.675781 22.609375 19.734375 22.605469 19.792969 22.613281 C 19.878906 22.597656 19.976562 22.617188 20.074219 22.675781 C 20.9375 23.199219 21 24.410156 20.578125 25.242188 C 20.664062 25.566406 21.242188 25.5625 21.5 25.597656 C 21.953125 25.660156 22.355469 25.765625 22.636719 26.152344 C 22.660156 26.1875 22.679688 26.222656 22.691406 26.257812 C 22.738281 26.324219 22.769531 26.402344 22.773438 26.496094 C 22.789062 26.738281 22.847656 26.933594 23.046875 27.078125 C 23.304688 27.257812 23.5625 27.433594 23.78125 27.660156 C 23.96875 27.851562 23.933594 28.089844 23.804688 28.253906 C 23.75 28.976562 23.511719 29.625 23.363281 30.332031 C 23.171875 31.214844 23.503906 31.757812 23.714844 32.535156 C 24.085938 32.585938 24.476562 32.601562 24.824219 32.738281 C 25.320312 32.9375 25.660156 33.253906 25.933594 33.71875 C 25.953125 33.746094 25.964844 33.773438 25.976562 33.804688 C 25.980469 33.8125 25.980469 33.8125 25.984375 33.816406 C 26.253906 34.234375 26.550781 35.207031 27.195312 35.03125 C 27.359375 34.984375 27.496094 35.027344 27.59375 35.113281 C 27.75 35.171875 27.871094 35.304688 27.875 35.519531 C 27.882812 36.195312 28.164062 36.714844 28.414062 37.328125 C 28.449219 37.410156 28.453125 37.484375 28.441406 37.550781 C 28.507812 37.832031 28.515625 38.117188 28.402344 38.390625 C 28.292969 38.652344 28.121094 38.867188 27.964844 39.101562 C 27.917969 39.167969 27.863281 39.214844 27.804688 39.25 C 27.753906 39.34375 27.667969 39.421875 27.539062 39.464844 C 26.34375 39.832031 25.097656 40.882812 24.628906 42.082031 C 25.484375 42.511719 26.4375 42.804688 27.160156 43.433594 C 27.488281 43.714844 27.734375 44.011719 27.890625 44.421875 C 28.125 45.042969 28.511719 45.425781 28.945312 45.886719 C 29.941406 45.5 30.722656 43.503906 31.363281 42.71875 C 31.941406 42.011719 32.359375 41.25 32.730469 40.417969 C 33.011719 39.769531 33.5 39.207031 33.65625 38.515625 C 33.640625 38.449219 33.644531 38.375 33.671875 38.292969 C 34.550781 35.738281 36.589844 35.113281 38.753906 33.957031 C 39.933594 33.328125 41.824219 34.429688 42.550781 32.738281 C 43.164062 31.320312 43.597656 29.925781 44.324219 28.539062 C 44.339844 28.503906 44.359375 28.476562 44.378906 28.453125 C 44.398438 28.417969 44.417969 28.382812 44.445312 28.34375 C 45.789062 26.691406 44.214844 24.207031 45.542969 22.445312 C 45.582031 22.394531 45.632812 22.351562 45.679688 22.320312 C 45.683594 22.3125 45.6875 22.304688 45.695312 22.296875 C 46.25 21.457031 46.707031 20.554688 47.316406 19.753906 C 47.8125 19.101562 48.632812 18.660156 48.945312 17.886719 C 48.980469 17.800781 49.03125 17.738281 49.089844 17.691406 C 49.117188 17.605469 49.175781 17.523438 49.253906 17.457031 Z M 50 12.75 C 51.535156 14.375 51.566406 16.738281 49.804688 18.175781 C 49.480469 18.941406 48.917969 19.335938 48.359375 19.929688 C 47.585938 20.761719 47.105469 21.816406 46.484375 22.757812 C 46.441406 22.820312 46.386719 22.867188 46.335938 22.898438 C 46.332031 22.902344 46.332031 22.90625 46.332031 22.910156 C 45.011719 24.660156 46.535156 27.097656 45.144531 28.917969 C 45.136719 28.949219 45.125 28.972656 45.113281 29 C 44.628906 29.917969 44.066406 30.855469 43.785156 31.859375 C 43.667969 32.285156 43.578125 32.8125 43.339844 33.199219 C 42.929688 33.871094 42.34375 34.378906 41.566406 34.578125 C 40.964844 34.738281 40.46875 34.769531 39.84375 34.746094 C 39.007812 34.714844 38.707031 35.183594 38.097656 35.507812 C 37.324219 35.921875 36.503906 35.847656 35.839844 36.53125 C 35.257812 37.128906 34.828125 37.738281 34.554688 38.53125 C 34.566406 38.578125 34.566406 38.628906 34.554688 38.6875 C 34.386719 39.597656 33.746094 40.421875 33.34375 41.257812 C 32.878906 42.234375 32.214844 42.917969 31.632812 43.796875 C 30.980469 44.78125 30.316406 46.578125 29.007812 46.824219 C 28.910156 46.839844 28.820312 46.828125 28.742188 46.796875 C 28.632812 46.804688 28.511719 46.765625 28.410156 46.65625 C 28.074219 46.289062 27.539062 45.914062 27.324219 45.445312 C 27.160156 45.074219 27.054688 44.542969 26.738281 44.269531 C 25.875 43.527344 24.753906 43.238281 23.789062 42.664062 C 23.484375 42.488281 23.527344 42.140625 23.714844 41.945312 C 24.222656 40.425781 25.683594 39.125 27.1875 38.617188 C 27.40625 38.308594 27.652344 38.070312 27.535156 37.671875 C 27.519531 37.617188 27.515625 37.570312 27.515625 37.523438 C 27.292969 36.988281 27.085938 36.515625 27 35.972656 C 26.089844 35.960938 25.667969 35.007812 25.195312 34.277344 C 25.171875 34.242188 25.15625 34.210938 25.144531 34.175781 C 24.703125 33.429688 23.941406 33.527344 23.183594 33.371094 C 22.921875 33.320312 22.828125 33.101562 22.863281 32.894531 C 22.683594 32.148438 22.316406 31.601562 22.355469 30.804688 C 22.40625 29.898438 22.851562 29.070312 22.902344 28.15625 C 22.902344 28.140625 22.90625 28.125 22.90625 28.105469 C 22.710938 27.957031 22.496094 27.828125 22.3125 27.648438 C 22.035156 27.363281 21.914062 27.023438 21.871094 26.644531 C 21.863281 26.632812 21.855469 26.625 21.84375 26.613281 C 21.777344 26.511719 21.445312 26.503906 21.335938 26.488281 C 21.101562 26.457031 20.859375 26.4375 20.632812 26.367188 C 20.050781 26.191406 19.71875 25.808594 19.652344 25.199219 C 19.636719 25.078125 19.675781 24.980469 19.730469 24.90625 C 19.738281 24.890625 19.746094 24.875 19.753906 24.855469 C 19.949219 24.503906 20.035156 23.859375 19.707031 23.546875 C 18.761719 23.746094 17.769531 23.125 17.078125 22.53125 C 16.527344 22.050781 15.914062 22.125 15.316406 21.785156 C 14.820312 21.511719 14.425781 21.140625 14.003906 20.765625 C 13.917969 20.691406 13.871094 20.605469 13.859375 20.519531 C 13.839844 20.464844 13.828125 20.402344 13.832031 20.328125 C 13.851562 19.949219 13.75 19.582031 13.703125 19.210938 C 13.375 19.332031 13.054688 19.492188 12.722656 19.605469 C 12.226562 19.773438 12.019531 20.132812 11.589844 20.382812 C 11.554688 20.398438 11.523438 20.414062 11.492188 20.421875 C 11.457031 20.441406 11.414062 20.457031 11.363281 20.464844 C 10.339844 20.625 8.90625 20.902344 8.066406 20.121094 C 7.9375 20.003906 7.910156 19.863281 7.933594 19.734375 C 7.914062 19.59375 7.90625 19.453125 7.898438 19.3125 C 7.097656 19.460938 6.367188 19.320312 5.851562 18.632812 C 5.578125 18.582031 5.316406 18.492188 5.105469 18.296875 C 4.902344 18.101562 4.816406 17.859375 4.816406 17.59375 C 4.667969 17.363281 4.457031 17.179688 4.28125 16.964844 C 4.070312 16.703125 3.941406 16.4375 3.898438 16.101562 C 3.890625 16.035156 3.910156 15.964844 3.9375 15.90625 C 3.9375 15.3125 4.238281 14.636719 4.746094 14.308594 C 4.753906 14.296875 4.753906 14.285156 4.761719 14.273438 C 4.894531 14.027344 4.863281 13.722656 4.914062 13.453125 C 4.96875 13.113281 5.121094 12.828125 5.363281 12.582031 C 5.417969 12.527344 5.472656 12.492188 5.53125 12.46875 C 5.777344 12.261719 6.066406 12.140625 6.394531 12.089844 C 6.65625 12.046875 6.914062 12.015625 7.140625 11.882812 C 7.355469 11.464844 7.855469 11.347656 8.3125 11.34375 C 8.324219 11.34375 8.332031 11.347656 8.339844 11.347656 C 8.4375 11.332031 8.535156 11.347656 8.621094 11.40625 C 8.699219 11.464844 8.765625 11.527344 8.828125 11.589844 C 9.117188 11.257812 9.195312 10.683594 9.253906 10.273438 C 9.34375 9.609375 8.875 9.21875 8.554688 8.691406 C 8.488281 8.585938 8.472656 8.480469 8.492188 8.382812 C 8.476562 8.292969 8.492188 8.1875 8.554688 8.082031 C 8.71875 7.808594 8.972656 7.605469 9.109375 7.320312 C 9.125 7.292969 9.136719 7.277344 9.144531 7.257812 C 9.09375 7.15625 9.054688 7.050781 9 6.949219 C 8.664062 6.355469 8.632812 5.863281 9.132812 5.347656 C 9.179688 5.296875 9.238281 5.265625 9.289062 5.238281 C 9.300781 5.226562 9.316406 5.210938 9.335938 5.195312 C 10.175781 4.539062 11.0625 4.121094 12.144531 4.097656 C 12.363281 4.09375 12.5 4.214844 12.554688 4.371094 C 12.558594 4.378906 12.5625 4.378906 12.570312 4.382812 C 13.175781 5.066406 14.820312 5.789062 15.195312 4.679688 C 15.082031 4.460938 15.035156 4.261719 15.058594 4.015625 C 15.078125 3.769531 15.125 3.632812 14.976562 3.414062 C 14.742188 3.066406 14.640625 2.773438 14.699219 2.351562 C 14.722656 2.191406 14.804688 2.09375 14.917969 2.050781 C 15.117188 1.792969 15.414062 1.640625 15.726562 1.574219 C 15.765625 1.570312 15.804688 1.570312 15.839844 1.570312 C 15.96875 1.472656 16.144531 1.433594 16.332031 1.519531 C 17.222656 1.949219 18.207031 1.914062 18.921875 1.183594 C 19.308594 0.78125 19.675781 0.398438 20.183594 0.148438 C 20.363281 0.0625 20.535156 0.0976562 20.664062 0.191406 C 20.753906 0.21875 20.839844 0.269531 20.910156 0.367188 C 21.34375 0.941406 21.777344 1.433594 21.757812 2.1875 C 21.738281 2.925781 21.050781 4.167969 21.996094 4.621094 C 22.507812 4.335938 23.101562 4.316406 23.679688 4.351562 C 24.203125 4.382812 25.070312 4.601562 25.199219 3.925781 C 25.234375 3.75 25.339844 3.648438 25.464844 3.613281 C 25.515625 3.5625 25.582031 3.523438 25.671875 3.507812 C 26.480469 3.320312 27.128906 3.617188 27.925781 3.601562 C 28.652344 3.585938 28.792969 3.171875 29.113281 2.609375 C 29.460938 1.984375 29.917969 1.273438 30.734375 1.527344 C 30.878906 1.570312 30.96875 1.660156 31.015625 1.765625 C 31.054688 1.816406 31.085938 1.875 31.101562 1.945312 C 31.476562 3.375 33.167969 4.445312 32.769531 6.039062 C 33.132812 6.539062 33.859375 6.539062 34.394531 6.800781 C 35.007812 7.097656 35.574219 7.476562 36.238281 7.660156 C 36.304688 7.644531 36.382812 7.640625 36.46875 7.667969 C 37.171875 7.875 38.054688 7.738281 38.585938 8.355469 C 38.863281 8.679688 38.898438 9.148438 38.738281 9.53125 C 38.550781 9.972656 38.496094 10.335938 38.972656 10.484375 C 38.984375 10.476562 38.992188 10.460938 39.007812 10.453125 C 39.304688 10.265625 39.488281 9.9375 39.78125 9.738281 C 40.148438 9.492188 40.574219 9.511719 40.9375 9.746094 C 40.964844 9.757812 40.980469 9.773438 41 9.789062 C 42.632812 9.882812 44.207031 9.65625 45.683594 10.539062 C 46.304688 10.910156 46.75 11.355469 47.273438 11.847656 C 47.980469 12.507812 48.679688 12.476562 49.589844 12.472656 C 49.804688 12.472656 49.941406 12.59375 50 12.75 " fill-opacity="1" fill-rule="nonzero"/></g><path fill="#bd202e" d="M 6 17.738281 C 6.046875 17.746094 6.046875 17.746094 6.007812 17.742188 C 6.007812 17.742188 6.003906 17.742188 6 17.738281 " fill-opacity="1" fill-rule="nonzero"/></svg>