<svg xmlns="http://www.w3.org/2000/svg" xmlns:xlink="http://www.w3.org/1999/xlink" width="74" zoomAndPan="magnify" viewBox="0 0 55.5 47.25" height="63" preserveAspectRatio="xMidYMid meet" version="1.0"><defs><clipPath id="6ceb4b5ec4"><path d="M 1.417969 0.457031 L 54.308594 0.457031 L 54.308594 46.511719 L 1.417969 46.511719 Z M 1.417969 0.457031 " clip-rule="nonzero"/></clipPath></defs><g clip-path="url(#6ceb4b5ec4)"><path fill="#bd202e" d="M 48.515625 21.773438 L 48.496094 21.773438 C 48.0625 9.9375 38.976562 0.457031 27.863281 0.457031 C 16.746094 0.457031 7.664062 9.9375 7.230469 21.773438 L 7.207031 21.773438 C 4.015625 21.785156 1.421875 24.574219 1.421875 28.007812 L 1.421875 32.417969 C 1.421875 35.851562 4.015625 38.640625 7.207031 38.652344 L 10.6875 38.652344 C 11.957031 38.652344 12.980469 37.542969 12.980469 36.179688 L 12.980469 24.246094 C 12.980469 22.882812 11.945312 21.773438 10.6875 21.773438 L 8.878906 21.773438 C 9.3125 10.917969 17.65625 2.230469 27.863281 2.230469 C 38.066406 2.230469 46.410156 10.917969 46.84375 21.773438 L 45.035156 21.773438 C 43.765625 21.773438 42.742188 22.882812 42.742188 24.246094 L 42.742188 36.179688 C 42.742188 37.542969 43.777344 38.652344 45.035156 38.652344 L 46.867188 38.652344 L 46.867188 41.390625 C 46.867188 42.332031 46.15625 43.089844 45.28125 43.089844 L 31.839844 43.089844 C 31.5 42.054688 30.589844 41.316406 29.511719 41.316406 L 26.203125 41.316406 C 24.835938 41.316406 23.726562 42.511719 23.726562 43.980469 C 23.726562 45.449219 24.835938 46.640625 26.203125 46.640625 L 29.511719 46.640625 C 30.589844 46.640625 31.5 45.902344 31.839844 44.867188 L 45.28125 44.867188 C 47.066406 44.867188 48.515625 43.300781 48.515625 41.390625 L 48.515625 38.652344 C 51.710938 38.640625 54.300781 35.851562 54.300781 32.417969 L 54.300781 28.007812 C 54.300781 24.574219 51.710938 21.785156 48.515625 21.773438 Z M 3.074219 32.417969 L 3.074219 28.007812 C 3.074219 25.558594 4.921875 23.558594 7.207031 23.550781 L 7.207031 36.875 C 4.921875 36.867188 3.074219 34.867188 3.074219 32.417969 Z M 11.34375 24.246094 L 11.34375 36.179688 C 11.34375 36.558594 11.058594 36.875 10.699219 36.875 L 8.859375 36.875 L 8.859375 23.550781 L 10.6875 23.550781 C 11.046875 23.550781 11.34375 23.867188 11.34375 24.246094 Z M 29.511719 44.867188 L 26.203125 44.867188 C 25.746094 44.867188 25.375 44.464844 25.375 43.980469 C 25.375 43.492188 25.746094 43.089844 26.203125 43.089844 L 29.511719 43.089844 C 29.964844 43.089844 30.335938 43.492188 30.335938 43.980469 C 30.335938 44.464844 29.964844 44.867188 29.511719 44.867188 Z M 45.035156 36.875 C 44.675781 36.875 44.390625 36.558594 44.390625 36.179688 L 44.390625 24.246094 C 44.390625 23.867188 44.675781 23.550781 45.035156 23.550781 L 46.867188 23.550781 L 46.867188 36.875 Z M 52.652344 32.417969 C 52.652344 34.867188 50.800781 36.867188 48.515625 36.875 L 48.515625 23.550781 C 50.800781 23.558594 52.652344 25.558594 52.652344 28.007812 Z M 52.652344 32.417969 " fill-opacity="1" fill-rule="nonzero"/></g></svg>