<svg xmlns="http://www.w3.org/2000/svg" xmlns:xlink="http://www.w3.org/1999/xlink" width="74" zoomAndPan="magnify" viewBox="0 0 55.5 47.25" height="63" preserveAspectRatio="xMidYMid meet" version="1.0"><defs><clipPath id="ce0bb7308d"><path d="M 27.070312 20.367188 L 51.019531 20.367188 L 51.019531 46.511719 L 27.070312 46.511719 Z M 27.070312 20.367188 " clip-rule="nonzero"/></clipPath><clipPath id="91b5837533"><path d="M 4.878906 0 L 41 0 L 41 46.511719 L 4.878906 46.511719 Z M 4.878906 0 " clip-rule="nonzero"/></clipPath></defs><g clip-path="url(#ce0bb7308d)"><path fill="#bd202e" d="M 48.59375 39.84375 C 49.054688 35.589844 47.851562 33.355469 46.132812 30.175781 C 45.5 29.003906 44.804688 27.710938 44.085938 26.152344 C 44.015625 25.992188 43.886719 25.878906 43.734375 25.820312 C 43.601562 25.769531 43.449219 25.765625 43.308594 25.8125 C 43.296875 25.816406 43.285156 25.824219 43.273438 25.828125 L 43.25 25.839844 L 43.230469 25.847656 C 43.21875 25.851562 43.210938 25.855469 43.199219 25.859375 C 43.066406 25.933594 42.96875 26.050781 42.917969 26.1875 C 42.863281 26.328125 42.859375 26.488281 42.914062 26.636719 C 42.921875 26.648438 42.925781 26.660156 42.933594 26.675781 L 42.941406 26.695312 L 42.941406 26.699219 C 42.953125 26.71875 42.960938 26.742188 42.96875 26.761719 L 43.226562 27.347656 C 43.332031 27.589844 43.355469 27.851562 43.296875 28.089844 L 43.300781 28.089844 C 43.289062 28.140625 43.273438 28.1875 43.253906 28.234375 C 43.183594 28.421875 43.070312 28.589844 42.910156 28.726562 C 42.824219 28.792969 42.734375 28.851562 42.632812 28.894531 C 42.390625 29.003906 42.132812 29.023438 41.890625 28.96875 C 41.84375 28.957031 41.792969 28.941406 41.75 28.925781 C 41.5625 28.855469 41.390625 28.738281 41.257812 28.578125 C 41.191406 28.5 41.136719 28.40625 41.089844 28.300781 L 41.183594 28.257812 L 41.085938 28.300781 C 41.070312 28.273438 41.0625 28.242188 41.050781 28.210938 L 40.164062 26.210938 C 40.089844 26.046875 39.957031 25.925781 39.800781 25.863281 C 39.644531 25.804688 39.460938 25.800781 39.296875 25.875 L 39.296875 25.878906 C 39.285156 25.886719 39.277344 25.890625 39.265625 25.894531 L 39.257812 25.898438 L 39.246094 25.902344 L 39.242188 25.902344 C 39.101562 25.980469 39.003906 26.101562 38.949219 26.242188 C 38.941406 26.257812 38.9375 26.273438 38.929688 26.292969 L 38.929688 24.011719 C 39.453125 23.875 39.992188 23.917969 40.472656 24.101562 C 40.878906 24.257812 41.242188 24.515625 41.527344 24.863281 C 41.75 24.578125 42.035156 24.332031 42.378906 24.160156 C 42.414062 24.140625 42.449219 24.121094 42.488281 24.105469 L 42.488281 24.109375 L 42.835938 24.894531 L 42.871094 24.972656 L 42.488281 24.109375 C 43.121094 23.828125 43.804688 23.828125 44.398438 24.050781 C 45 24.277344 45.511719 24.730469 45.800781 25.359375 C 46.492188 26.867188 47.175781 28.132812 47.792969 29.277344 C 49.675781 32.761719 50.996094 35.207031 50.46875 40.042969 C 50.464844 40.074219 50.464844 40.105469 50.472656 40.144531 C 50.476562 40.171875 50.484375 40.195312 50.492188 40.222656 C 50.496094 40.230469 50.5 40.242188 50.503906 40.25 L 49.632812 40.613281 L 50.503906 40.253906 L 50.898438 41.210938 C 50.90625 41.230469 50.917969 41.25 50.925781 41.269531 L 50.921875 41.269531 L 50.925781 41.269531 C 51.054688 41.570312 51.050781 41.898438 50.9375 42.183594 C 50.828125 42.464844 50.609375 42.707031 50.304688 42.84375 L 41.46875 46.777344 C 41.449219 46.792969 41.421875 46.804688 41.398438 46.816406 L 41.394531 46.820312 L 41.382812 46.824219 L 41.375 46.828125 L 41.261719 46.558594 L 41.261719 46.5625 L 41.375 46.828125 C 41.074219 46.957031 40.746094 46.953125 40.460938 46.839844 C 40.238281 46.753906 40.039062 46.59375 39.898438 46.382812 C 39.863281 46.332031 39.832031 46.28125 39.808594 46.222656 L 39.804688 46.21875 L 39.800781 46.207031 C 39.796875 46.199219 39.792969 46.1875 39.789062 46.179688 L 40.101562 46.050781 L 39.789062 46.175781 L 39.535156 45.546875 C 39.53125 45.539062 39.527344 45.53125 39.523438 45.523438 C 39.503906 45.476562 39.476562 45.4375 39.441406 45.402344 C 39.417969 45.378906 39.386719 45.359375 39.355469 45.34375 C 39.210938 45.308594 39.070312 45.277344 38.929688 45.242188 L 38.929688 43.292969 C 39.21875 43.371094 39.527344 43.445312 39.855469 43.519531 L 39.648438 44.441406 L 39.855469 43.515625 C 39.921875 43.53125 39.984375 43.550781 40.042969 43.578125 C 40.300781 43.6875 40.539062 43.839844 40.742188 44.035156 C 40.960938 44.242188 41.136719 44.492188 41.257812 44.773438 C 41.265625 44.785156 41.269531 44.792969 41.269531 44.804688 L 48.933594 41.390625 L 48.765625 40.988281 L 48.757812 40.976562 C 48.753906 40.964844 48.75 40.953125 48.746094 40.945312 C 48.679688 40.777344 48.632812 40.601562 48.605469 40.425781 C 48.574219 40.234375 48.570312 40.039062 48.59375 39.84375 Z M 38.929688 26.667969 L 38.929688 29.789062 C 38.96875 29.777344 39.007812 29.761719 39.046875 29.746094 C 39.179688 29.6875 39.300781 29.601562 39.402344 29.496094 C 39.703125 29.191406 39.84375 28.742188 39.621094 28.246094 L 39 26.835938 L 38.996094 26.828125 L 38.996094 26.824219 L 38.988281 26.804688 L 38.988281 26.800781 L 38.980469 26.785156 L 38.976562 26.78125 C 38.972656 26.769531 38.96875 26.757812 38.964844 26.746094 L 38.960938 26.75 C 38.949219 26.722656 38.941406 26.695312 38.929688 26.667969 Z M 38.929688 26.292969 C 38.894531 26.414062 38.894531 26.542969 38.929688 26.667969 L 38.929688 29.789062 C 38.832031 29.824219 38.722656 29.84375 38.617188 29.847656 C 38.191406 29.863281 37.765625 29.664062 37.542969 29.167969 L 36.515625 26.847656 C 36.507812 26.835938 36.5 26.820312 36.496094 26.808594 L 36.488281 26.789062 L 36.484375 26.785156 L 36.476562 26.765625 L 36.476562 26.761719 L 36.472656 26.753906 C 36.398438 26.621094 36.285156 26.527344 36.15625 26.476562 C 36.015625 26.421875 35.859375 26.417969 35.714844 26.472656 C 35.699219 26.480469 35.6875 26.484375 35.675781 26.492188 L 35.671875 26.492188 L 35.65625 26.5 L 35.652344 26.5 L 35.640625 26.503906 L 35.640625 24.5625 C 36.046875 24.515625 36.453125 24.570312 36.824219 24.714844 C 37.050781 24.800781 37.261719 24.917969 37.453125 25.066406 C 37.6875 24.707031 38.019531 24.40625 38.425781 24.203125 C 38.429688 24.199219 38.4375 24.195312 38.445312 24.191406 L 38.464844 24.179688 L 38.484375 24.171875 L 38.511719 24.15625 L 38.527344 24.148438 L 38.53125 24.148438 C 38.542969 24.144531 38.550781 24.140625 38.5625 24.132812 L 38.5625 24.136719 C 38.683594 24.085938 38.808594 24.042969 38.929688 24.011719 Z M 35.640625 27.964844 L 35.640625 30.734375 L 36.070312 30.546875 L 36.070312 30.542969 L 36.074219 30.546875 L 35.640625 30.734375 L 35.640625 32.058594 C 35.714844 32.050781 35.785156 32.039062 35.859375 32.015625 C 35.914062 32.003906 35.96875 31.984375 36.023438 31.960938 C 36.054688 31.945312 36.089844 31.925781 36.132812 31.902344 C 36.417969 31.738281 36.621094 31.480469 36.714844 31.1875 C 36.808594 30.902344 36.800781 30.578125 36.667969 30.28125 Z M 35.640625 42 C 36.425781 42.476562 37.433594 42.898438 38.929688 43.292969 L 38.929688 45.242188 C 37.535156 44.902344 36.484375 44.546875 35.640625 44.15625 Z M 35.640625 26.503906 L 35.652344 26.5 Z M 35.640625 26.503906 L 35.632812 26.511719 L 35.628906 26.511719 L 35.617188 26.515625 C 35.605469 26.523438 35.589844 26.53125 35.574219 26.542969 L 35.574219 24.570312 C 35.597656 24.566406 35.617188 24.5625 35.640625 24.5625 Z M 35.574219 27.8125 L 35.640625 27.964844 L 35.640625 30.734375 L 35.574219 30.765625 Z M 35.640625 32.058594 L 35.640625 30.734375 L 35.574219 30.765625 L 35.574219 30.945312 L 35.640625 31.09375 L 35.574219 30.945312 L 35.574219 32.066406 C 35.597656 32.0625 35.617188 32.0625 35.640625 32.058594 Z M 35.574219 41.957031 C 35.597656 41.972656 35.617188 41.984375 35.640625 42 L 35.640625 44.15625 C 35.617188 44.148438 35.597656 44.136719 35.574219 44.125 Z M 35.640625 26.503906 L 35.632812 26.511719 Z M 35.574219 26.542969 C 35.550781 26.558594 35.53125 26.574219 35.507812 26.59375 L 35.507812 24.582031 C 35.53125 24.578125 35.554688 24.574219 35.574219 24.570312 Z M 35.507812 27.664062 L 35.574219 27.8125 L 35.574219 30.765625 L 35.511719 30.792969 L 35.507812 30.792969 L 35.511719 30.792969 L 35.507812 30.792969 Z M 35.574219 32.066406 C 35.554688 32.066406 35.53125 32.066406 35.507812 32.066406 L 35.507812 30.796875 L 35.574219 30.945312 Z M 35.507812 41.917969 C 35.53125 41.929688 35.550781 41.945312 35.574219 41.957031 L 35.574219 44.125 C 35.554688 44.113281 35.53125 44.105469 35.507812 44.09375 Z M 35.574219 30.765625 L 35.507812 30.792969 L 35.507812 30.796875 L 35.574219 30.945312 Z M 35.507812 30.792969 Z M 35.507812 26.59375 C 35.433594 26.660156 35.378906 26.742188 35.34375 26.835938 C 35.285156 26.984375 35.285156 27.15625 35.355469 27.316406 L 35.359375 27.316406 C 35.371094 27.34375 35.382812 27.375 35.394531 27.402344 L 35.507812 27.664062 L 35.507812 30.796875 L 35.507812 30.792969 L 35.507812 32.066406 C 35.375 32.066406 35.242188 32.046875 35.113281 32.003906 L 35.148438 31.902344 L 35.144531 31.902344 L 35.109375 32.007812 C 35.089844 32 35.066406 31.992188 35.046875 31.980469 C 34.785156 31.878906 34.554688 31.6875 34.40625 31.421875 C 34.382812 31.378906 34.363281 31.34375 34.347656 31.3125 C 34.332031 31.28125 34.320312 31.253906 34.3125 31.222656 L 34.242188 31.066406 L 34.242188 25.199219 C 34.40625 25.046875 34.59375 24.917969 34.800781 24.816406 C 34.867188 24.773438 34.941406 24.742188 35.019531 24.71875 C 35.179688 24.652344 35.34375 24.609375 35.507812 24.582031 Z M 34.242188 34.003906 L 35.359375 36.519531 C 35.710938 37.316406 35.148438 37.671875 34.816406 37.878906 L 34.816406 37.882812 C 34.773438 37.914062 34.726562 37.941406 34.679688 37.960938 C 34.527344 38.046875 34.382812 38.082031 34.242188 38.078125 L 34.242188 37.066406 L 34.269531 37.109375 L 34.242188 37.066406 Z M 34.242188 40.910156 C 34.628906 41.277344 35.027344 41.609375 35.507812 41.917969 L 35.507812 44.09375 C 35.027344 43.863281 34.613281 43.625 34.242188 43.367188 Z M 34.242188 31.066406 L 34.214844 31.003906 L 34.214844 25.222656 L 34.242188 25.199219 Z M 34.214844 33.941406 L 34.242188 34.003906 L 34.242188 37.066406 L 34.214844 37.027344 Z M 34.242188 38.078125 L 34.242188 37.066406 L 34.214844 37.027344 L 34.214844 38.078125 C 34.222656 38.078125 34.234375 38.078125 34.242188 38.078125 Z M 34.214844 40.882812 L 34.242188 40.910156 L 34.242188 43.367188 L 34.214844 43.347656 Z M 34.214844 31.003906 L 34.0625 30.660156 L 34.0625 25.378906 C 34.113281 25.324219 34.160156 25.273438 34.214844 25.222656 Z M 34.0625 33.597656 L 34.214844 33.941406 L 34.214844 37.027344 L 34.0625 36.8125 Z M 34.214844 38.078125 L 34.214844 37.027344 L 34.0625 36.8125 L 34.0625 38.050781 C 34.113281 38.066406 34.164062 38.074219 34.214844 38.078125 Z M 34.0625 40.738281 C 34.113281 40.785156 34.164062 40.835938 34.214844 40.882812 L 34.214844 43.347656 C 34.164062 43.3125 34.113281 43.277344 34.0625 43.238281 Z M 34.0625 30.660156 L 30.535156 22.691406 C 30.46875 22.542969 30.347656 22.433594 30.207031 22.378906 C 30.066406 22.324219 29.902344 22.324219 29.75 22.390625 L 29.753906 22.394531 C 29.734375 22.402344 29.71875 22.410156 29.699219 22.414062 C 29.578125 22.484375 29.488281 22.59375 29.441406 22.71875 C 29.382812 22.859375 29.382812 23.023438 29.449219 23.175781 L 29.453125 23.175781 C 29.46875 23.203125 29.476562 23.230469 29.488281 23.261719 L 34.0625 33.597656 L 34.0625 36.8125 L 33.910156 36.59375 L 33.910156 36.597656 L 34.0625 36.8125 L 34.0625 38.050781 C 33.742188 37.964844 33.433594 37.683594 33.042969 37.332031 C 32.28125 36.640625 30.859375 35.355469 29.976562 35.277344 L 30.054688 34.335938 L 29.972656 35.28125 C 29.890625 35.273438 29.8125 35.253906 29.742188 35.230469 C 29.589844 35.199219 29.441406 35.222656 29.308594 35.289062 C 29.164062 35.363281 29.046875 35.492188 28.992188 35.65625 C 28.933594 35.816406 28.945312 35.984375 29.003906 36.125 C 29.066406 36.273438 29.175781 36.394531 29.328125 36.46875 L 28.929688 37.324219 L 29.332031 36.464844 C 29.410156 36.5 29.480469 36.546875 29.539062 36.597656 C 31.40625 37.972656 32.472656 39.085938 33.371094 40.023438 C 33.609375 40.277344 33.835938 40.511719 34.0625 40.738281 L 34.0625 43.238281 C 33.300781 42.683594 32.703125 42.0625 32.011719 41.335938 C 31.167969 40.453125 30.164062 39.40625 28.429688 38.128906 C 27.890625 37.84375 27.492188 37.390625 27.269531 36.859375 C 27.03125 36.296875 27 35.648438 27.210938 35.035156 C 27.433594 34.394531 27.886719 33.894531 28.445312 33.609375 C 28.980469 33.332031 29.613281 33.246094 30.238281 33.40625 C 30.925781 33.496094 31.652344 33.863281 32.324219 34.3125 L 27.769531 24.027344 C 27.734375 23.964844 27.707031 23.898438 27.683594 23.832031 C 27.453125 23.234375 27.46875 22.601562 27.683594 22.042969 C 27.898438 21.484375 28.3125 21.003906 28.878906 20.71875 C 28.949219 20.675781 29.019531 20.640625 29.097656 20.617188 C 29.691406 20.386719 30.324219 20.402344 30.878906 20.617188 C 31.472656 20.84375 31.976562 21.300781 32.253906 21.929688 L 33.882812 25.605469 C 33.9375 25.527344 34 25.449219 34.0625 25.378906 L 34.0625 30.660156 " fill-opacity="1" fill-rule="nonzero"/></g><g clip-path="url(#91b5837533)"><path fill="#bd202e" d="M 9.410156 0 L 36.023438 0 C 37.261719 0 38.382812 0.503906 39.195312 1.320312 C 40.007812 2.136719 40.511719 3.261719 40.511719 4.503906 L 40.511719 23.117188 C 40.0625 22.988281 39.59375 22.953125 39.132812 23.011719 L 39.089844 22.902344 L 38.625 23.089844 L 38.625 4.503906 C 38.625 3.785156 38.332031 3.136719 37.859375 2.660156 C 37.386719 2.1875 36.738281 1.894531 36.023438 1.894531 L 9.410156 1.894531 C 8.699219 1.894531 8.046875 2.1875 7.578125 2.660156 C 7.105469 3.136719 6.8125 3.785156 6.8125 4.503906 L 6.8125 41.949219 C 6.8125 42.664062 7.105469 43.316406 7.578125 43.789062 C 8.046875 44.261719 8.699219 44.554688 9.410156 44.554688 L 34.363281 44.554688 C 35.496094 45.210938 36.710938 45.640625 38.007812 45.988281 C 37.40625 46.285156 36.734375 46.453125 36.023438 46.453125 L 9.410156 46.453125 C 8.175781 46.453125 7.054688 45.945312 6.242188 45.128906 C 5.425781 44.3125 4.921875 43.1875 4.921875 41.949219 L 4.921875 4.503906 C 4.921875 3.261719 5.425781 2.136719 6.242188 1.320312 C 7.054688 0.503906 8.175781 0 9.410156 0 " fill-opacity="1" fill-rule="nonzero"/></g><path fill="#bd202e" d="M 6.65625 33.652344 C 6.132812 33.652344 5.710938 34.078125 5.710938 34.601562 C 5.710938 35.125 6.132812 35.550781 6.65625 35.550781 L 25.234375 35.550781 C 25.753906 35.550781 26.179688 35.125 26.179688 34.601562 C 26.179688 34.078125 25.753906 33.652344 25.234375 33.652344 L 6.65625 33.652344 " fill-opacity="1" fill-rule="nonzero"/><path fill="#bd202e" d="M 22.71875 36.734375 C 23.632812 36.734375 24.457031 37.105469 25.058594 37.707031 C 25.65625 38.304688 26.023438 39.136719 26.023438 40.050781 C 26.023438 40.96875 25.65625 41.796875 25.058594 42.398438 C 24.457031 43 23.632812 43.371094 22.71875 43.371094 L 22.71875 41.472656 C 23.109375 41.472656 23.464844 41.316406 23.71875 41.058594 C 23.976562 40.800781 24.136719 40.445312 24.136719 40.050781 C 24.136719 39.660156 23.976562 39.304688 23.71875 39.046875 C 23.464844 38.789062 23.109375 38.628906 22.71875 38.628906 Z M 22.71875 43.371094 C 21.804688 43.371094 20.980469 43 20.378906 42.398438 C 19.78125 41.796875 19.410156 40.96875 19.410156 40.050781 C 19.410156 39.136719 19.78125 38.304688 20.378906 37.707031 C 20.980469 37.105469 21.804688 36.734375 22.71875 36.734375 L 22.71875 38.628906 C 22.328125 38.628906 21.972656 38.789062 21.714844 39.046875 C 21.460938 39.304688 21.300781 39.660156 21.300781 40.050781 C 21.300781 40.445312 21.460938 40.800781 21.714844 41.058594 C 21.972656 41.316406 22.328125 41.472656 22.71875 41.472656 L 22.71875 43.371094 " fill-opacity="1" fill-rule="nonzero"/><path fill="#bd202e" d="M 21.300781 3.554688 C 20.777344 3.554688 20.355469 3.976562 20.355469 4.503906 C 20.355469 5.027344 20.777344 5.449219 21.300781 5.449219 L 24.136719 5.449219 C 24.65625 5.449219 25.082031 5.027344 25.082031 4.503906 C 25.082031 3.976562 24.65625 3.554688 24.136719 3.554688 L 21.300781 3.554688 " fill-opacity="1" fill-rule="nonzero"/></svg>