<svg xmlns="http://www.w3.org/2000/svg" xmlns:xlink="http://www.w3.org/1999/xlink" width="74" zoomAndPan="magnify" viewBox="0 0 55.5 47.25" height="63" preserveAspectRatio="xMidYMid meet" version="1.0"><defs><clipPath id="aef71520ad"><path d="M 9 10 L 46 10 L 46 46.511719 L 9 46.511719 Z M 9 10 " clip-rule="nonzero"/></clipPath><clipPath id="cbf09629f2"><path d="M 5.222656 0 L 49.917969 0 L 49.917969 26 L 5.222656 26 Z M 5.222656 0 " clip-rule="nonzero"/></clipPath></defs><g clip-path="url(#aef71520ad)"><path fill="#bd202e" d="M 9.820312 27.976562 L 9.820312 46.101562 C 9.820312 46.558594 10.1875 46.929688 10.640625 46.929688 L 29.945312 46.929688 L 29.945312 30.511719 L 39.015625 30.511719 L 39.015625 46.929688 L 44.410156 46.929688 C 44.863281 46.929688 45.226562 46.558594 45.226562 46.101562 L 45.226562 27.976562 L 27.535156 10.21875 Z M 24.21875 38.160156 L 16.035156 38.160156 L 16.035156 30.515625 L 24.21875 30.515625 Z M 24.21875 38.160156 " fill-opacity="1" fill-rule="nonzero"/></g><g clip-path="url(#cbf09629f2)"><path fill="#bd202e" d="M 48.8125 21.457031 L 27.527344 0.00390625 L 17.484375 10.125 L 17.484375 5.667969 C 17.484375 4.628906 16.644531 3.785156 15.613281 3.785156 C 14.582031 3.785156 13.742188 4.628906 13.742188 5.667969 L 13.742188 13.894531 L 6.238281 21.457031 C 5.324219 22.375 5.324219 23.867188 6.238281 24.789062 C 6.691406 25.25 7.292969 25.476562 7.890625 25.476562 C 8.488281 25.476562 9.085938 25.25 9.542969 24.789062 L 27.527344 6.667969 L 45.507812 24.789062 C 46.421875 25.710938 47.902344 25.710938 48.8125 24.789062 C 49.726562 23.867188 49.726562 22.375 48.8125 21.457031 Z M 48.8125 21.457031 " fill-opacity="1" fill-rule="nonzero"/></g></svg>